# xmcd CD database file
#
# Track frame offsets:
#	150
#	34350
#	71475
#	87300
#	135750
#	147825
#	196950
#	212700
#	240300
#	264210
#
# Disc length: 4048 seconds
#
# Revision: 0
# Processed by: cddbd v1.5.1PL2 Copyright (c) Steve Scherf et al.
# Submitted via: CDex 1.51
#
DISCID=840fce0a
DTITLE=Jazz Unit - from now on...
DYEAR=1999
DGENRE=Jazz
TTITLE0=Go For It!
TTITLE1=Nana Wasamba
TTITLE2=Chords of my Memories
TTITLE3=A Love Supreme
TTITLE4=Teaca
TTITLE5=In a Sentimental Mood
TTITLE6=The Quiet Road
TTITLE7=Two of a Kind
TTITLE8=Duke's Dream - Come Sunday
TTITLE9=Spiritual
EXTD=YEAR: 1999
EXTT0=
EXTT1=
EXTT2=
EXTT3=
EXTT4=
EXTT5=
EXTT6=
EXTT7=
EXTT8=
EXTT9=
PLAYORDER=
